<svg xmlns="http://www.w3.org/2000/svg" xmlns:xlink="http://www.w3.org/1999/xlink" width="239pt" height="857pt" viewBox="0.00 0.00 239.00 857.00">
<g id="graph0" class="graph" transform="scale(1 1) rotate(0) translate(4 853)">
<title>DataFlow</title>
<polygon fill="white" stroke="none" points="-4,4 -4,-853 235,-853 235,4 -4,4"/>
<g id="clust1" class="cluster">
<title>cluster_target</title>
<path fill="none" stroke="#ffe4b5" stroke-dasharray="5,2" d="M20,-659.4C20,-659.4 186,-659.4 186,-659.4 192,-659.4 198,-665.4 198,-671.4 198,-671.4 198,-829 198,-829 198,-835 192,-841 186,-841 186,-841 20,-841 20,-841 14,-841 8,-835 8,-829 8,-829 8,-671.4 8,-671.4 8,-665.4 14,-659.4 20,-659.4"/>
<text xml:space="preserve" text-anchor="middle" x="103" y="-824.4" font-family="Times,serif" font-size="14.00">iSCSI Target (iscsi-target)</text>
</g>
<g id="clust2" class="cluster">
<title>cluster_initiators</title>
<path fill="none" stroke="#b0e0e6" stroke-dasharray="5,2" d="M31,-8C31,-8 211,-8 211,-8 217,-8 223,-14 223,-20 223,-20 223,-596.8 223,-596.8 223,-602.8 217,-608.8 211,-608.8 211,-608.8 31,-608.8 31,-608.8 25,-608.8 19,-602.8 19,-596.8 19,-596.8 19,-20 19,-20 19,-14 25,-8 31,-8"/>
<text xml:space="preserve" text-anchor="middle" x="121" y="-592.2" font-family="Times,serif" font-size="14.00">iSCSI Initiators (gfs2-node-1,2,3)</text>
</g>
<!-- vdb -->
<g id="node1" class="node">
<title>vdb</title>
<path fill="#fff8dc" stroke="black" d="M141.79,-808.2C141.79,-808.2 64.21,-808.2 64.21,-808.2 58.21,-808.2 52.21,-802.2 52.21,-796.2 52.21,-796.2 52.21,-784.2 52.21,-784.2 52.21,-778.2 58.21,-772.2 64.21,-772.2 64.21,-772.2 141.79,-772.2 141.79,-772.2 147.79,-772.2 153.79,-778.2 153.79,-784.2 153.79,-784.2 153.79,-796.2 153.79,-796.2 153.79,-802.2 147.79,-808.2 141.79,-808.2"/>
<text xml:space="preserve" text-anchor="middle" x="103" y="-793.2" font-family="Arial" font-size="10.00">/dev/vdb</text>
<text xml:space="preserve" text-anchor="middle" x="103" y="-781.2" font-family="Arial" font-size="10.00">5GB QCOW2 диск</text>
</g>
<!-- tgt -->
<g id="node2" class="node">
<title>tgt</title>
<polygon fill="#ffd700" stroke="black" points="189.66,-703.4 16.34,-703.4 16.34,-699.4 12.34,-699.4 12.34,-695.4 16.34,-695.4 16.34,-675.4 12.34,-675.4 12.34,-671.4 16.34,-671.4 16.34,-667.4 189.66,-667.4 189.66,-703.4"/>
<polyline fill="none" stroke="black" points="16.34,-699.4 20.34,-699.4 20.34,-695.4 16.34,-695.4"/>
<polyline fill="none" stroke="black" points="16.34,-675.4 20.34,-675.4 20.34,-671.4 16.34,-671.4"/>
<text xml:space="preserve" text-anchor="middle" x="103" y="-688.4" font-family="Arial" font-size="10.00">tgt (iSCSI Target)</text>
<text xml:space="preserve" text-anchor="middle" x="103" y="-676.4" font-family="Arial" font-size="10.00">IQN: iqn.2026-06.local.gfs2:storage</text>
</g>
<!-- vdb&#45;&gt;tgt -->
<g id="edge1" class="edge">
<title>vdb-&gt;tgt</title>
<path fill="none" stroke="black" d="M103,-771.95C103,-771.95 103,-715.31 103,-715.31"/>
<polygon fill="black" stroke="black" points="106.5,-715.31 103,-705.31 99.5,-715.31 106.5,-715.31"/>
<text xml:space="preserve" text-anchor="middle" x="133.01" y="-735.1" font-family="Arial" font-size="9.00">экспортирует</text>
</g>
<!-- sda -->
<g id="node3" class="node">
<title>sda</title>
<path fill="#e0ffff" stroke="black" d="M135.68,-576C135.68,-576 70.32,-576 70.32,-576 64.32,-576 58.32,-570 58.32,-564 58.32,-564 58.32,-552 58.32,-552 58.32,-546 64.32,-540 70.32,-540 70.32,-540 135.68,-540 135.68,-540 141.68,-540 147.68,-546 147.68,-552 147.68,-552 147.68,-564 147.68,-564 147.68,-570 141.68,-576 135.68,-576"/>
<text xml:space="preserve" text-anchor="middle" x="103" y="-561" font-family="Arial" font-size="10.00">/dev/sda</text>
<text xml:space="preserve" text-anchor="middle" x="103" y="-549" font-family="Arial" font-size="10.00">5GB iSCSI диск</text>
</g>
<!-- tgt&#45;&gt;sda -->
<g id="edge2" class="edge">
<title>tgt-&gt;sda</title>
<path fill="none" stroke="#cc0000" stroke-dasharray="5,2" d="M103,-667.15C103,-667.15 103,-587.73 103,-587.73"/>
<polygon fill="#cc0000" stroke="#cc0000" points="106.5,-587.73 103,-577.73 99.5,-587.73 106.5,-587.73"/>
<text xml:space="preserve" text-anchor="middle" x="135.76" y="-630.3" font-family="Arial" font-size="9.00">iSCSI протокол</text>
<text xml:space="preserve" text-anchor="middle" x="135.76" y="-619.5" font-family="Arial" font-size="9.00">порт 3260</text>
</g>
<!-- pv -->
<g id="node4" class="node">
<title>pv</title>
<path fill="#98fb98" stroke="black" d="M118,-471.2C118,-471.2 88,-471.2 88,-471.2 82,-471.2 76,-465.2 76,-459.2 76,-459.2 76,-447.2 76,-447.2 76,-441.2 82,-435.2 88,-435.2 88,-435.2 118,-435.2 118,-435.2 124,-435.2 130,-441.2 130,-447.2 130,-447.2 130,-459.2 130,-459.2 130,-465.2 124,-471.2 118,-471.2"/>
<text xml:space="preserve" text-anchor="middle" x="103" y="-456.2" font-family="Arial" font-size="10.00">LVM PV</text>
<text xml:space="preserve" text-anchor="middle" x="103" y="-444.2" font-family="Arial" font-size="10.00">/dev/sda</text>
</g>
<!-- sda&#45;&gt;pv -->
<g id="edge3" class="edge">
<title>sda-&gt;pv</title>
<path fill="none" stroke="black" d="M103,-539.75C103,-539.75 103,-483.11 103,-483.11"/>
<polygon fill="black" stroke="black" points="106.5,-483.11 103,-473.11 99.5,-483.11 106.5,-483.11"/>
<text xml:space="preserve" text-anchor="middle" x="120.26" y="-502.9" font-family="Arial" font-size="9.00">pvcreate</text>
</g>
<!-- vg -->
<g id="node5" class="node">
<title>vg</title>
<path fill="#98fb98" stroke="black" d="M118,-366.4C118,-366.4 88,-366.4 88,-366.4 82,-366.4 76,-360.4 76,-354.4 76,-354.4 76,-342.4 76,-342.4 76,-336.4 82,-330.4 88,-330.4 88,-330.4 118,-330.4 118,-330.4 124,-330.4 130,-336.4 130,-342.4 130,-342.4 130,-354.4 130,-354.4 130,-360.4 124,-366.4 118,-366.4"/>
<text xml:space="preserve" text-anchor="middle" x="103" y="-351.4" font-family="Arial" font-size="10.00">LVM VG</text>
<text xml:space="preserve" text-anchor="middle" x="103" y="-339.4" font-family="Arial" font-size="10.00">vg_gfs2</text>
</g>
<!-- pv&#45;&gt;vg -->
<g id="edge4" class="edge">
<title>pv-&gt;vg</title>
<path fill="none" stroke="black" d="M103,-434.95C103,-434.95 103,-378.31 103,-378.31"/>
<polygon fill="black" stroke="black" points="106.5,-378.31 103,-368.31 99.5,-378.31 106.5,-378.31"/>
<text xml:space="preserve" text-anchor="middle" x="120.26" y="-398.1" font-family="Arial" font-size="9.00">vgcreate</text>
</g>
<!-- lv -->
<g id="node6" class="node">
<title>lv</title>
<path fill="#98fb98" stroke="black" d="M129.57,-261.6C129.57,-261.6 76.43,-261.6 76.43,-261.6 70.43,-261.6 64.43,-255.6 64.43,-249.6 64.43,-249.6 64.43,-237.6 64.43,-237.6 64.43,-231.6 70.43,-225.6 76.43,-225.6 76.43,-225.6 129.57,-225.6 129.57,-225.6 135.57,-225.6 141.57,-231.6 141.57,-237.6 141.57,-237.6 141.57,-249.6 141.57,-249.6 141.57,-255.6 135.57,-261.6 129.57,-261.6"/>
<text xml:space="preserve" text-anchor="middle" x="103" y="-246.6" font-family="Arial" font-size="10.00">LVM LV</text>
<text xml:space="preserve" text-anchor="middle" x="103" y="-234.6" font-family="Arial" font-size="10.00">lv_gfs2 (4GB)</text>
</g>
<!-- vg&#45;&gt;lv -->
<g id="edge5" class="edge">
<title>vg-&gt;lv</title>
<path fill="none" stroke="black" d="M103,-330.15C103,-330.15 103,-273.51 103,-273.51"/>
<polygon fill="black" stroke="black" points="106.5,-273.51 103,-263.51 99.5,-273.51 106.5,-273.51"/>
<text xml:space="preserve" text-anchor="middle" x="118.76" y="-293.3" font-family="Arial" font-size="9.00">lvcreate</text>
</g>
<!-- gfs2 -->
<g id="node7" class="node">
<title>gfs2</title>
<polygon fill="#87ceeb" stroke="black" points="151.3,-156.8 54.7,-156.8 54.7,-152.8 50.7,-152.8 50.7,-148.8 54.7,-148.8 54.7,-128.8 50.7,-128.8 50.7,-124.8 54.7,-124.8 54.7,-120.8 151.3,-120.8 151.3,-156.8"/>
<polyline fill="none" stroke="black" points="54.7,-152.8 58.7,-152.8 58.7,-148.8 54.7,-148.8"/>
<polyline fill="none" stroke="black" points="54.7,-128.8 58.7,-128.8 58.7,-124.8 54.7,-124.8"/>
<text xml:space="preserve" text-anchor="middle" x="103" y="-141.8" font-family="Arial" font-size="10.00">mkfs.gfs2</text>
<text xml:space="preserve" text-anchor="middle" x="103" y="-129.8" font-family="Arial" font-size="10.00">-p lock_nolock -j 3</text>
</g>
<!-- lv&#45;&gt;gfs2 -->
<g id="edge6" class="edge">
<title>lv-&gt;gfs2</title>
<path fill="none" stroke="black" d="M103,-225.35C103,-225.35 103,-168.71 103,-168.71"/>
<polygon fill="black" stroke="black" points="106.5,-168.71 103,-158.71 99.5,-168.71 106.5,-168.71"/>
<text xml:space="preserve" text-anchor="middle" x="130.51" y="-188.5" font-family="Arial" font-size="9.00">форматирует</text>
</g>
<!-- mount -->
<g id="node8" class="node">
<title>mount</title>
<path fill="#dda0dd" stroke="black" d="M156.51,-52C156.51,-52 49.49,-52 49.49,-52 43.49,-52 37.49,-46 37.49,-40 37.49,-40 37.49,-28 37.49,-28 37.49,-22 43.49,-16 49.49,-16 49.49,-16 156.51,-16 156.51,-16 162.51,-16 168.51,-22 168.51,-28 168.51,-28 168.51,-40 168.51,-40 168.51,-46 162.51,-52 156.51,-52"/>
<text xml:space="preserve" text-anchor="middle" x="103" y="-37" font-family="Arial" font-size="10.00">mount /mnt/gfs2</text>
<text xml:space="preserve" text-anchor="middle" x="103" y="-25" font-family="Arial" font-size="10.00">Файловая система GFS2</text>
</g>
<!-- gfs2&#45;&gt;mount -->
<g id="edge7" class="edge">
<title>gfs2-&gt;mount</title>
<path fill="none" stroke="black" d="M103,-120.55C103,-120.55 103,-63.91 103,-63.91"/>
<polygon fill="black" stroke="black" points="106.5,-63.91 103,-53.91 99.5,-63.91 106.5,-63.91"/>
<text xml:space="preserve" text-anchor="middle" x="125.5" y="-83.7" font-family="Arial" font-size="9.00">монтирует</text>
</g>
</g>
</svg>